<svg xmlns="http://www.w3.org/2000/svg" viewBox="0 0 1366 505.29"><defs><style>.cls-1{fill:#1a129f;}</style></defs><g id="Layer_2" data-name="Layer 2"><g id="Layer_1-2" data-name="Layer 1"><path class="cls-1" d="M1366,219.5V505.29H0V50.68A264.49,264.49,0,0,1,25,34.29c16.38-9.48,42.74-24.44,79-31,79.41-14.37,145,22.6,156,29,31.82,18.55,26.57,26.14,102,82a577.87,577.87,0,0,0,54,36c8.53,5,34.22,19.74,59,30,47.81,19.79,90.2,22,128,24,87.46,4.59,152.08-13.85,166-18,15.29-4.55,33.4-10.92,45-15,45-15.84,72.84-28.13,90-35,8.36-3.35,66.5-26.22,134-34,35.39-4.08,97.84-10.61,171,14,68.25,23,112.23,61.72,137,84C1353.14,206.71,1359.72,213,1366,219.5Z"/></g></g></svg>