<svg xmlns="http://www.w3.org/2000/svg" viewBox="0 0 1366 423.8"><defs><style>.cls-1{fill:#1a129f;}</style></defs><g id="Layer_2" data-name="Layer 2"><g id="Layer_1-2" data-name="Layer 1"><path class="cls-1" d="M1366,175.66V423.8H0V200.72c16,5.45,33.7,10.9,57,18.08,65.92,20.32,98.88,30.48,116,32,91.23,8.12,162-34.54,174-42,21.75-13.52,39.17-30.34,74-64,52.2-50.44,61.46-71.48,105-101,18-12.18,40-26.86,73-36C641.49-4,676.75.46,694,2.8c37.22,5.06,63.07,16.77,96,32,41.45,19.17,43.35,26.29,103,58,21.19,11.26,47.27,25,83,40,30,12.54,59.44,24.72,100,34,31.94,7.31,55.92,9.43,85,12,20.35,1.8,58.26,4.46,114,3C1306.36,181,1327.25,179.28,1366,175.66Z"/></g></g></svg>