<svg xmlns="http://www.w3.org/2000/svg" viewBox="0 0 1366 408.08"><defs><style>.cls-1{fill:#29abe2;}</style></defs><g id="Layer_2" data-name="Layer 2"><g id="Layer_1-2" data-name="Layer 1"><path id="first" class="cls-1" d="M1366,237V408.08H0V153.38c15.35-21.46,29.33-38.75,41-52.3a335.53,335.53,0,0,1,50-48c32.63-25.3,70.73-54.83,122-53,8.08.29,43.61,2.32,75,26,20.21,15.25,18.14,24,43,51,26.13,28.42,51.91,44.35,74,58,23.91,14.78,47.37,29.27,82,39,26.28,7.38,47.26,8.72,83,11,28.65,1.83,50.3,1.39,68,1,28.23-.63,59-1.31,95-7,30-4.74,39.91-9.19,88-22,0,0,45.23-12,109-26,92.64-20.27,142.34-31.15,202-24,94.9,11.37,162,62,188,84A381.78,381.78,0,0,1,1366,237Z"/><path id="second" class="cls-1" d="M1366,273.73V408.08H0V255.33c50.19,6,69.12,10.81,112,11.75,36.62.79,72.57,1.58,117-10,46.85-12.21,78.21-31.66,111-52,74.15-46,132-104,132-104,28.67-28.74,34.57-39.74,56-48,53.4-20.58,109.58,12,113,14,20,12,21.16,19.59,64,65,23.4,24.8,47.45,50.29,67,66,41.49,33.33,85,40.51,154,51,53.27,8.11,106.18,8.07,212,8,63.35,0,96.06-1.56,151,5C1319.14,265.68,1345.14,268.79,1366,273.73Z"/></g></g></svg>