<svg xmlns="http://www.w3.org/2000/svg" width="16.808" height="16.808" viewBox="0 0 16.808 16.808">
  <g id="instagram" transform="translate(0 16.808) rotate(-90)">
    <g id="Group_1285" data-name="Group 1285" transform="translate(0 0)">
      <g id="Group_1284" data-name="Group 1284">
        <path id="Path_1209" data-name="Path 1209" d="M11.926,0H4.882A4.888,4.888,0,0,0,0,4.882v7.043a4.888,4.888,0,0,0,4.882,4.882h7.043a4.888,4.888,0,0,0,4.882-4.882V4.882A4.888,4.888,0,0,0,11.926,0Zm3.569,11.926a3.573,3.573,0,0,1-3.569,3.569H4.882a3.573,3.573,0,0,1-3.569-3.569V4.882A3.573,3.573,0,0,1,4.882,1.313h7.043a3.573,3.573,0,0,1,3.569,3.569Z" fill="#fff"/>
      </g>
    </g>
    <g id="Group_1287" data-name="Group 1287" transform="translate(3.874 3.874)">
      <g id="Group_1286" data-name="Group 1286">
        <path id="Path_1210" data-name="Path 1210" d="M4.53,0a4.53,4.53,0,1,0,4.53,4.53A4.535,4.535,0,0,0,4.53,0Zm0,7.748A3.217,3.217,0,1,1,7.748,4.53,3.221,3.221,0,0,1,4.53,7.748Z" fill="#fff"/>
      </g>
    </g>
    <g id="Group_1289" data-name="Group 1289" transform="translate(12.343 3.152)">
      <g id="Group_1288" data-name="Group 1288">
        <circle id="Ellipse_91" data-name="Ellipse 91" cx="0.657" cy="0.657" r="0.657" fill="#fff"/>
      </g>
    </g>
  </g>
</svg>
